<mxfile host="app.diagrams.net" agent="Mozilla/5.0 (Windows NT 10.0; Win64; x64) AppleWebKit/537.36 (KHTML, like Gecko) Chrome/138.0.0.0 Safari/537.36 OPR/122.0.0.0 (Edition std-2)" version="28.2.3">
  <diagram name="PÃ¡gina-1" id="H6EInFO6SrYOL9CTw_T1">
    <mxGraphModel dx="1224" dy="665" grid="1" gridSize="10" guides="1" tooltips="1" connect="1" arrows="1" fold="1" page="1" pageScale="1" pageWidth="827" pageHeight="1169" math="0" shadow="0">
      <root>
        <mxCell id="0" />
        <mxCell id="1" parent="0" />
        <mxCell id="OLo9JDgMP8blUHthKr4o-52" value="" style="rounded=0;whiteSpace=wrap;html=1;" parent="1" vertex="1">
          <mxGeometry x="90" y="110" width="700" height="600" as="geometry" />
        </mxCell>
        <mxCell id="OLo9JDgMP8blUHthKr4o-35" style="edgeStyle=orthogonalEdgeStyle;rounded=0;orthogonalLoop=1;jettySize=auto;html=1;" parent="1" source="OLo9JDgMP8blUHthKr4o-17" target="OLo9JDgMP8blUHthKr4o-27" edge="1">
          <mxGeometry relative="1" as="geometry" />
        </mxCell>
        <mxCell id="OLo9JDgMP8blUHthKr4o-17" value="User" style="shape=umlActor;verticalLabelPosition=bottom;verticalAlign=top;html=1;outlineConnect=0;" parent="1" vertex="1">
          <mxGeometry x="20" y="200" width="30" height="60" as="geometry" />
        </mxCell>
        <mxCell id="OLo9JDgMP8blUHthKr4o-20" value="" style="shape=cylinder3;whiteSpace=wrap;html=1;boundedLbl=1;backgroundOutline=1;size=15;" parent="1" vertex="1">
          <mxGeometry x="710" y="390" width="60" height="80" as="geometry" />
        </mxCell>
        <mxCell id="OLo9JDgMP8blUHthKr4o-37" style="edgeStyle=orthogonalEdgeStyle;rounded=0;orthogonalLoop=1;jettySize=auto;html=1;startArrow=classic;startFill=1;" parent="1" source="OLo9JDgMP8blUHthKr4o-25" target="OLo9JDgMP8blUHthKr4o-30" edge="1">
          <mxGeometry relative="1" as="geometry" />
        </mxCell>
        <mxCell id="OLo9JDgMP8blUHthKr4o-50" style="edgeStyle=orthogonalEdgeStyle;rounded=0;orthogonalLoop=1;jettySize=auto;html=1;entryX=1;entryY=0.5;entryDx=0;entryDy=0;startArrow=classic;startFill=1;" parent="1" source="OLo9JDgMP8blUHthKr4o-25" target="OLo9JDgMP8blUHthKr4o-27" edge="1">
          <mxGeometry relative="1" as="geometry" />
        </mxCell>
        <mxCell id="OLo9JDgMP8blUHthKr4o-25" value="" style="shape=image;verticalLabelPosition=bottom;labelBackgroundColor=default;verticalAlign=top;aspect=fixed;imageAspect=0;editableCssRules=.*;image=data:image/svg+xml,PHN2ZyB4bWxucz0iaHR0cDovL3d3dy53My5vcmcvMjAwMC9zdmciIHdpZHRoPSI5NDUuNzExNzI5ODk1NTMxNiIgdmlld0JveD0iNi4wMDYzMzA0OTAxMTIzMDUgNC4yMzk5OTAyMzQzNzUgMjUwLjIxOTU1ODcxNTgyMDMgMjQ5LjIzODI2NTk5MTIxMDk0IiBoZWlnaHQ9Ijk0Mi4wMDI4NTgyMjg1MTczIj48cGF0aCB0cmFuc2Zvcm09InRyYW5zbGF0ZSgwIC00MS40MTI0ODcpIiBmaWxsLXJ1bGU9ImV2ZW5vZGQiIGZpbGw9IiNlMDIzNGUiIGQ9Im0xNTMuMzM4NDUgNDUuNjUyNDgxYy0xLjgwOTM0IDAtMy40ODk0NC4zODc3MjktNS4wNDAzMi45MDQ2NzMgMy4yOTU1OCAyLjE5NzA2IDUuMTA0OTMgNS4xMDQ5NjEgNi4wMDk2MyA4LjQwMDU1MS4wNjQ4LjQ1MjMzLjE5Mzg2Ljc3NTQ0NC4yNTg1NiAxLjIyNzc1OS4wNjQ4LjM4NzcyOS4xMjkxNi43NzU0NDQuMTI5MTYgMS4xNjMxNzEuMjU4NiA1LjY4NjUwOS0xLjQ4NjI4IDYuMzk3MzIzLTIuNzE0MDMgOS43NTc1NDMtMS44NzM5OCA0LjMyOTUyOS0xLjM1NzA0IDguOTgyMTMzLjkwNDY2IDEyLjczMDA3OS4xOTM4Ny40NTIzMTguNDUyMzQuOTY5Mjc1Ljc3NTQ2IDEuNDIxNjE4LTIuNDU1NTgtMTYuMzQ4NzU5IDExLjE3OTE5LTE4LjgwNDMwNCAxMy42OTkzMi0yMy45MDkyNC4xOTM4Ni00LjQ1ODc2MS0zLjQ4OTQ0LTcuNDMxMjYzLTYuMzk3MzEtOS40OTkwOTItMi43Nzg2NC0xLjY4MDEwNC01LjI5ODg0LTIuMTk3MDYyLTcuNjI1MTMtMi4xOTcwNjJ6bTIwLjU0OTAzIDMuNjgzMzE4Yy0uMjU4NTggMS40ODYyNDctLjA2NDcgMS4wOTg1My0uMTI5MTMgMS44NzM5NzMtLjA2NDcuNTE2OTQ1LS4wNjQ3IDEuMTYzMTU3LS4xMjkxNCAxLjY4MDEwMi0uMTI5MTQuNTE2OTU5LS4yNTg2IDEuMDMzOTA0LS40NTIzNiAxLjU1MDg4Ni0uMTI5MTMuNTE2OTQ1LS4zMjMwOSAxLjAzMzkwMy0uNTE2OTQgMS41NTA4NDctLjI1ODYuNTE2OTgzLS40NTIzNC45NjkzMDEtLjcxMDgyIDEuNDg2MjU4LS4xOTM4NS4yNTg1ODUtLjMyMzA5LjUxNjk0NS0uNTE2OTUuNzc1NDQzLS4xMjkxNC4xOTM4NTctLjI1ODU4LjM4NzcxNS0uMzg3NzEuNTgxNTcyLS4zMjMwOS40NTIzNTUtLjY0NjIxLjkwNDY3My0uOTY5MjkgMS4yOTIzODctLjM4Nzc0LjM4NzcyOS0uNzEwODMuODQwMDQ2LTEuMTYzMTkgMS4xNjMxNzF2LjA2NDdjLS4zODc3MS4zMjMxLS43NzU0My43MTA4MTUtMS4yMjc3NSAxLjAzMzkwMy0xLjM1NzAyIDEuMDMzOTAyLTIuOTA3ODcgMS44MDkzNDQtNC4zMjk1MiAyLjc3ODY0NC0uNDUyMzEuMzIzMDg4LS45MDQ2OC41ODE1ODctMS4yOTIzOC45NjkzLS40NTIzMy4zMjMwODgtLjg0MDA2LjY0NjE3Ni0xLjIyNzc2IDEuMDMzOTAzLS40NTIzNi4zODc3MTUtLjc3NTQ1Ljc3NTQ0Mi0xLjE2MzE4IDEuMjI3Nzg0LS4zMjMwOS4zODc3MjgtLjcxMDguODQwMDQ4LS45NjkyNyAxLjI5MjQwMi0uMzIzMTIuNDUyMzE3LS42NDYyLjkwNDY2MS0uOTA0NyAxLjM1Njk5LS4yNTg1Ny41MTY5NDQtLjQ1MjMzLjk2OTI5OS0uNzEwODEgMS40ODYyNDUtLjE5Mzg1LjUxNjk0NC0uMzg3NzMuOTY5MzAxLS41MTY5NSAxLjQ4NjI0NC0uMTkzODYuNTgxNTg2LS4zMjMxIDEuMDk4NTQ0LS40NTIzNCAxLjYxNTUxNC0uMDY0Ny4yNTg1ODMtLjA2NDcuNTgxNTYtLjEyOTE0Ljg0MDA0NS0uMDY0OC4yNTg1ODQtLjA2NDguNTE2OTQ1LS4xMjkxMy43NzU0NDMgMCAuNTE2OTQ0LS4wNjQ3IDEuMDk4NTMtLjA2NDcgMS42MTU0NzUgMCAuMzg3NzI3IDAgLjc3NTQ0MS4wNjQ3IDEuMTYzMTY5IDAgLjUxNjk0Ni4wNjQ3IDEuMDMzODkyLjE5Mzg1IDEuNjE1NDc2LjA2NDcuNTE2OTQ0LjE5Mzg0IDEuMDMzOTAyLjMyMzEyIDEuNTUwODg1LjE5Mzg2LjUxNjk0NC4zMjMxIDEuMDMzOTAyLjUxNjk0IDEuNTUwODQ3LjEyOTE2LjMyMzEyNi4zMjMwOS42NDYyMTMuNDUyMzYuOTA0NjczbC0xNC44NjI1Mi01Ljc1MTE0Yy0yLjUyMDE4LS43MTA4MTUtNC45NzU3LTEuMzU2OTktNy40OTU4OC0xLjkzODU3Ni0xLjM1Ny0uMzIzMDg3LTIuNzE0LS42NDYxOTgtNC4wNzEwMi0uOTY5Mjk5LTMuODc3MTktLjc3NTQzLTcuODE4OTUtMS4zNTY5OTEtMTEuNzYwNzYtMS43NDQ3MDUtLjEyOTEzIDAtLjE5Mzg1LS4wNjQ3MS0uMzIzMDktLjA2NDcxLTMuODc3Mi0uMzg3NzE0LTcuNjg5NzMtLjU4MTU3Mi0xMS41NjY5LS41ODE1NzItMi44NDMyOCAwLTUuNjg2NTYuMTI5MTMxLTguNDY1MjAxLjMyMzA4OC0zLjk0MTc5OC4yNTg1ODQtNy44ODM2MDIuNzc1NDQyLTExLjgyNTM3MyAxLjQyMTYxNy0uOTY5MzAyLjEyOTE0NC0xLjkzODYwMi4zMjMxMjUtMi45MDc5MDUuNTE2OTg0LTIuMDAzMTk5LjM4NzY4OS0zLjk0MTc3MS44NDAwNDQtNS44MTU3NDIgMS4yOTIzODYtLjk2OTMuMjU4NTg0LTEuOTM4NjAyLjUxNjk1OC0yLjkwNzkwMy43NzU0MTktLjk2OTI3LjM4NzcxMy0xLjg3Mzk0Ljg0MDA3LTIuNzc4NjQyIDEuMjI3Nzg0LS43MTA4MTEuMzIzMDg4LTEuNDIxNjE5LjY0NjE4Ny0yLjEzMjQzMS45NjkzLS4xMjkxMzkuMDY0NzEtLjI1ODU4LjA2NDcxLS4zMjMwOS4xMjkxNDQtLjY0NjIxLjMyMzA4Ny0xLjIyNzc5LjU4MTU0Ny0xLjgwOTM0MS45MDQ2NzEtLjE5Mzg2MS4wNjQ3MS0uMzIzMTIyLjEyOTEzMi0uNDUyMzUxLjE5Mzg1OS0uNzEwODEuMzIzMDg5LTEuNDIxNjE4LjcxMDgwMy0yLjAwMzIwMSAxLjAzMzkwMi0uNDUyMzUuMTkzODU4LS45MDQ2Ny40NTIzNDMtMS4yOTIzODkuNjQ2MjEzLS4xOTM4NjIuMTI5MTMxLS40NTIzNTMuMjU4NTcyLS41ODE1ODIuMzIzMDg4LS41ODE1NzkuMzIzMDg4LTEuMTYzMTYuNjQ2MTc0LTEuNjgwMTExLjk2OTMtLjU4MTU4MS4zMjMwODctMS4wOTg1MzIuNjQ2MTc1LTEuNTUwODgyLjk2OTI2My0uNDUyMzE4LjMyMzEyNS0uOTA0NjY3LjU4MTU4NS0xLjI5MjM5LjkwNDY3Mi0uMDY0NzQuMDY0NzEtLjEyOTEzOS4wNjQ3MS0uMTkzODYxLjEyOTE0NS0uMzg3NzE5LjI1ODU4My0uODQwMDM5LjU4MTU3MS0xLjIyNzc1OC45MDQ2OTYgMCAwLS4wNjQ3My4wNjQ3LS4xMjkxNC4xMjkxNDItLjMyMzA5LjI1ODU4NC0uNjQ2MjEyLjUxNjk0Ny0uOTY5MzAxLjc3NTQwNy0uMTI5MTM4LjA2NDcxLS4yNTg1ODEuMTkzODU3LS4zODc3Mi4yNTg1ODMtLjMyMzA5LjI1ODU4Ni0uNjQ2MTguNTgxNTg2LS45NjkyNzEuODQwMDctLjA2NDczLjEyOTE0My0uMTkzODU5LjE5Mzg1OC0uMjU4NTgxLjI1ODU4NS0uMzg3NzIuMzg3NzE1LS43NzU0NDEuNzEwODAyLTEuMTYzMTYxIDEuMDk4NTMtLjA2NDczIDAtLjA2NDczLjA2NDcxLS4xMjkxMzkuMTI5MTMxLS4zODc3Mi4zMjMxLS43NzU0MzkuNzEwODE2LTEuMTYzMTU5IDEuMDk4NTQzLS4wNjQ3My4wNjQ3MS0uMDY0NzMuMTI5MTMtLjEyOTE0LjEyOTEzLS4zMjMwOS4zMjMwODktLjY0NjE4LjY0NjIxMy0uOTY5MzAxIDEuMDMzOTAyLS4xMjkxMzcuMTI5MTQzLS4zMjMwOS4yNTg1ODYtLjQ1MjMxOS4zODc3MTUtLjMyMzA5LjM4NzcyOC0uNzEwODExLjc3NTQ0My0xLjA5ODUzIDEuMTYzMTcxLS4wNjQ3My4xMjkxMzItLjE5Mzg2LjE5Mzg1OC0uMjU4NTgyLjMyMzA4Ny0uNTE2OTUyLjUxNjk4My0uOTY5MzAyIDEuMDMzOTI4LTEuNDg2MjUyIDEuNTUwODg1LS4wNjQ3My4wNjQ3MS0uMTI5MTM4LjEyOTEyOC0uMTkzODU5LjE5Mzg1OC0xLjAzMzkzMSAxLjA5ODUyOS0yLjEzMjQ2MyAyLjE5NzA1OS0zLjI5NTU5NCAzLjE2NjM1Mi0xLjE2MzE1OSAxLjAzMzktMi4zOTA5MjIgMi4wMDMyLTMuNjE4NzExIDIuODQzMjUtMS4yOTIzOTIuOTA0Ny0yLjUyMDE1MiAxLjY4MDExLTMuODc3MTczIDIuNDU1NTUtMS4yOTIzOTIuNzEwNzktMi42NDk0MTIgMS4zNTcwMS00LjA3MTAzMiAxLjkzODYtMS4zNTcwMjIuNTgxNTctMi43Nzg2NDEgMS4wOTg1NC00LjIwMDI2NCAxLjU1MDg1LTIuNzE0MDQxLjU4MTU3LTUuNDkyNjg0IDEuNjgwMTEtNy44ODM2MDUgMS44NzM5Ny0uNTE2OTUgMC0xLjA5ODUzMS4xMjkxNS0xLjYxNTQ4Mi4xOTM4NS0uNTgxNTc4LjEyOTE0LTEuMDk4NTI5LjI1ODU5LTEuNjE1NDc5LjM4Nzc0LS41MTY5NTEuMTkzODQtMS4wMzM5MzEuMzg3NzEtMS41NTA4ODMuNTgxNTYtLjUxNjk1MS4xOTM4Ni0xLjAzMzkwMS40NTIzNS0xLjU1MDg1Mi43MTA4My0uNDUyMzUuMzIzMDgtLjk2OTI5OS41ODE1Ny0xLjQyMTY1MS45MDQ2Ni0uNDUyMzIyLjMyMzA5LS45MDQ2NzIuNzEwOC0xLjI5MjM5MyAxLjA5ODUzLS40NTIzMTkuMzIzMTItLjkwNDY2OS43NzU0NS0xLjI5MjM5IDEuMTYzMTUtLjM4NzcyMS40NTIzNy0uNzc1NDQuODQwMDgtMS4wOTg1MzA0IDEuMjkyMzktLjMyMzA5MDEuNTE2OTUtLjcxMDgxMDguOTY5MzEtLjk2OTMwMTYgMS40ODYyNy0uMzIzMDkuNDUyMzUtLjY0NjE3OTkuOTY5MjktLjkwNDY3MDcgMS40ODYyMi0uMjU4NTgxNS41ODE2MS0uNTE2OTQ5OCAxLjA5ODU1LS43MTA4MTA3IDEuNjgwMTQtLjE5Mzg1OTkuNTE2OTUtLjM4NzcxOTkgMS4wOTg1Mi0uNTgxNTc5OSAxLjY4MDExLS4xMjkxMzgyLjUxNjk0LS4yNTg1ODEzIDEuMDMzOS0uMzIzMDg5OCAxLjU1MDgzIDAgLjA2NDgtLjA2NDcxOS4xMjkxNi0uMDY0NzE5LjE5Mzg3LS4xMjkxMzkyLjU4MTYxLS4xMjkxMzkyIDEuMzU3MDYtLjE5Mzg2MDggMS43NDQ3OS0uMDY0NzE5LjQ1MjMyLS4xMjkxMzczLjg0MDAyLS4xMjkxMzczIDEuMjkyMzggMCAuMjU4NTggMCAuNTgxNTUuMDY0NzE5Ljg0MDAzLjA2NDcxOS40NTIzNi4xMjkxMzcxLjg0MDA3LjI1ODU4MTQgMS4yMjc4Mi4xMjkxMzgyLjM4NzY2LjI1ODU4MTUuNzc1MzkuNDUyMzIwMSAxLjE2MzEydi4wNjQ3Yy4xOTM4NTk5LjM4Nzc1LjQ1MjM1MDYuNzc1NDUuNzEwODEwOCAxLjE2MzE3LjI1ODU4MTQuMzg3NzIuNTE2OTgwNC43NzU0NC44NDAwNzA0IDEuMTYzMTcuMzIzMDg5OS4zMjMwOS43MTA4MTA5LjcxMDc4IDEuMDk4NTMwNCAxLjAzMzg5LjM4NzcyMDkuMzg3NzIuNzc1NDQyMS43MTA4MSAxLjIyNzc2MTEgMS4wMzM5IDEuNTUwODgxIDEuMzU3MDMgMS45Mzg2MDEgMS44MDkzOCAzLjk0MTgwNiAyLjg0MzI3LjMyMzA4Ny4xOTM4Ny42NDYyMS4zMjMxMSAxLjAzMzkzLjUxNjk3LjA2NDczIDAgLjEyOTEzOS4wNjQ3LjE5Mzg1OS4wNjQ3IDAgLjEyOTEzIDAgLjE5Mzg3LjA2NDczLjMyMzEzLjA2NDcyLjUxNjk2LjE5Mzg1OSAxLjAzMzg5LjMyMzA5IDEuNTUwODYuMTI5MTM4LjU4MTU4LjMyMzEyMSAxLjA5ODU1LjUxNjk4MSAxLjU1MDg3LjE5Mzg2LjM4NzczLjMyMzA5Ljc3NTQzLjUxNjk1MSAxLjE2MzE3LjA2NDcyLjEyOTE1LjEyOTE0LjI1ODU4LjE5Mzg2LjMyMzA5LjI1ODU4MS41MTY5NC41MTY5NS45NjkzMi43NzU0MSAxLjQyMTYyLjMyMzEyMS40NTIzMy42NDYyMS45MDQ2Ni45NjkyOTkgMS4zNTcwMy4zMjMwOTIuMzg3Ny43MTA4MTMuODQwMDQgMS4wOTg1MzIgMS4yMjc3NS4zODc3MjEuMzg3NzMuNzc1NDQyLjcxMDgzIDEuMjI3NzkzIDEuMDk4NTIgMCAwIC4wNjQ3My4wNjQ4LjEyOTEzNy4wNjQ4LjM4NzcyMi4zMjMxMi43NzU0NC42NDYyMiAxLjE2MzE2Mi45MDQ2Ni40NTIzMi4zMjMxMS45MDQ2Ny41ODE1NyAxLjQyMTYxOS44NDAwNy40NTIzNTEuMjU4NTguOTY5MzAyLjUxNjk1IDEuNDg2MjUyLjcxMDgyLjM4NzcyMS4xOTM4Ni44NDAwNC4zMjMxMSAxLjI5MjM5Mi40NTIzNC4wNjQ3My4wNjQ4LjEyOTEzOC4wNjQ4LjI1ODU4Mi4xMjkxNi4yNTg1ODEuMDY0OC41ODE1NDguMTI5MTIuODQwMDM5LjE5Mzg0LS4xOTM4NTkgMy40ODk0NS0uMjU4NTgyIDYuNzg1MDQuMjU4NTgzIDcuOTQ4MjIuNTgxNTUgMS4yOTIzOCAzLjQyNDgyMS0yLjY0OTQxIDYuMjY4MDk0LTcuMTcyNzctLjM4NzcxOSA0LjQ1ODc1LS42NDYyMTEgOS42OTI5IDAgMTEuMjQzODEuNzEwODA5IDEuNjE1NDUgNC41ODc5ODItMy40MjQ4NyA3Ljk0ODIwMy04Ljk4MjE1IDQ1LjgxNTI2Mi0xMC41OTc1NyA4Ny42MjQxOCAyMS4wNjYgOTIuMDE4MjkgNjUuNzgyNzMtLjg0MDA2LTYuOTc4OTItOS40MzQ0Ni0xMC44NTYwOC0xMy4zNzYyMy05Ljg4Njc3LTEuOTM4NjEgNC43ODE4My01LjIzNDIgMTAuOTIwNjgtMTAuNTMyOTkgMTQuNzMzMjQuNDUyMzMtNC4yNjQ5LjI1ODU2LTguNjU5MDEtLjY0NjE5LTEyLjkyMzkyLTEuNDIxNjUgNS45NDUwMS00LjIwMDMgMTEuNTAyMzItOC4wMTI4NyAxNi4yODQxNS02LjEzODg1Ny40NTIzMi0xMi4yNzc3MjktMi41MjAxOS0xNS41MDg3Mi02Ljk3ODkxLS4yNTg1ODItLjE5Mzg4LS4zMjMwOTEtLjU4MTU5LS41MTY5NTEtLjg0MDA2LS4xOTM4NjItLjQ1MjM4LS4zODc3MTktLjkwNDY3LS41MTY5NTEtMS4zNTcwMy0uMTkzODU5LS40NTIzMi0uMzIzMDg5LS45MDQ2Ny0uMzg3NzE5LTEuMzU2OTktLjA2NDczLS40NTIzNi0uMDY0NzMtLjkwNDY5LS4wNjQ3My0xLjQyMTYzIDAtLjMyMzEyIDAtLjY0NjIgMC0uOTY5MjguMDY0NzMtLjQ1MjM4LjE5Mzg2LS45MDQ3MS4zMjMwOTEtMS4zNTcwNS4xMjkxMzgtLjQ1MjMyLjI1ODU4LS45MDQ2Ny40NTIzNS0xLjM1NzAxLjI1ODU4Mi0uNDUyMzEuNDUyMzItLjkwNDY2Ljc3NTQ0MS0xLjM1Njk4IDEuMDk4NTMtMy4xMDE3OCAxLjA5ODUzLTUuNjIxOTItLjkwNDY3LTcuMTA4MTYtLjM4NzcyMS0uMjU4NTgtLjc3NTQ0MS0uNDUyMzYtMS4yMjc3OTEtLjY0NjIyLS4yNTg1ODQtLjA2NDctLjU4MTU4Mi0uMTkzODYtLjg0MDA0LS4yNTg1Ny0uMTkzODYxLS4wNjQ3LS4zMjMwOS0uMTI5MTYtLjUxNjk1MS0uMTkzODctLjQ1MjM1MS0uMTI5MTQtLjkwNDcwMi0uMjU4NTktMS4zNTcwMjItLjMyMzA5LS40NTIzNS0uMTI5MTMtLjkwNDY3LS4xOTM4Ni0xLjM1NzAyLS4xOTM4Ni0uNDUyMzIxLS4wNjQ4LS45NjkzMDMtLjEyOTE0LTEuNDIxNjIyLS4xMjkxNC0uMzIzMDg5IDAtLjY0NjIxLjA2NDctLjk2OTMwMS4wNjQ3LS41MTY5NDkgMC0uOTY5Mjk5LjA2NDgtMS40MjE2MjEuMTkzODYtLjQ1MjM1LjA2NDgtLjkwNDY2OS4xMjkxMy0xLjM1NzAxOS4yNTg1Ni0uNDUyMzIyLjEyOTE1LS45MDQ2NzMuMjU4NTktMS4zNTcwMjMuNDUyMzgtLjQ1MjMxOS4xOTM4NS0uODQwMDQxLjM4NzcxLTEuMjkyMzg5LjU4MTU3LS4zODc2OS4xOTM4Ny0uNzc1NDEyLjQ1MjMyLTEuMjI3NzYxLjY0NjE4LTE1LjA1NjM3MSA5LjgyMjE3LTYuMDc0MjM1IDMyLjgyNjc0IDQuMjAwMjY0IDM5LjQ4MjU2LTMuODc3MTc1LjcxMDgxLTcuODE4OTQ3IDEuNTUwOS04LjkxNzQ3OSAyLjM5MDkyLS4wNjQ3My4wNjQ3LS4xMjkxMzguMTI5MTUtLjEyOTEzOC4xMjkxNSAyLjc3ODY0MiAxLjY4MDA5IDUuNjg2NTE2IDMuMTAxNzMgOC43MjM2MTYgNC4zMjk0OSA0LjEzNTY2NSAxLjM1NzAyIDguNTI5Nzg2IDIuNTg0NzkgMTAuNDY4Mzg3IDMuMTAxNzZ2LjA2NDdjNS4zNjM0MjQgMS4wOTg1NCAxMC43OTE0OCAxLjQ4NjI2IDE2LjI4NDEzOSAxLjE2MzE3IDI4LjYyNjQ5LTIuMDAzMjEgNTIuMDgzNC0yMy43ODAwMyA1Ni4zNDgzLTUyLjQ3MTExLjEyOTE0LjU4MTU5LjI1ODU4IDEuMDk4NTIuMzg3NzIgMS42ODAxMi4xOTM4NyAxLjE2MzEyLjQ1MjMyIDIuMzkwOS41ODE1NSAzLjYxODY3di4wNjQ4Yy4xMjkxNC41ODE1OC4xOTM4NiAxLjE2MzE1LjI1ODU4IDEuNjgwMXYuMjU4NTljLjA2NDguNTgxNTcuMTI5MTUgMS4xNjMxNi4xMjkxNSAxLjY4MDEuMDY0Ny43MTA4Mi4xMjkxNCAxLjQyMTYyLjEyOTE0IDIuMTMyNDd2MS4wMzM5YzAgLjMyMzEyLjA2NDcuNzEwOC4wNjQ3IDEuMDMzOTIgMCAuMzg3NzMtLjA2NDcuNzc1NDItLjA2NDcgMS4xNjMxNHYuOTA0NjdjMCAuNDUyMzYtLjA2NDguODQwMDYtLjA2NDggMS4yOTI0IDAgLjI1ODU2IDAgLjUxNjk2LS4wNjQ3Ljg0MDA2IDAgLjQ1MjM2LS4wNjQ3LjkwNDY2LS4wNjQ3IDEuNDIxNjItLjA2NDguMTkzODYtLjA2NDguMzg3NzItLjA2NDguNTgxNTktLjA2NDcuNTE2OTYtLjEyOTE0Ljk2OTMtLjE5Mzg3IDEuNDg2MjYgMCAuMTkzODcgMCAuMzg3NzEtLjA2NDcuNTgxNTktLjA2NDguNjQ2MTctLjE5Mzg1IDEuMjI3NzctLjI1ODU1IDEuODczOTR2LjA2NDguMDY0N2MtLjEyOTE0LjU4MTU3LS4yNTg2IDEuMjI3NzYtLjM4Nzc1IDEuODA5MzN2LjE5Mzg3Yy0uMTI5MTIuNTgxNTYtLjI1ODU4IDEuMTYzMTYtLjM4NzcgMS43NDQ3MSAwIC4wNjQ4LS4wNjQ3LjE5Mzg3LS4wNjQ3LjI1ODU2LS4xMjkxNi41ODE2LS4yNTg2IDEuMTYzMTctLjQ1MjMyIDEuNzQ0Nzh2LjE5Mzg0Yy0uMTkzODYuNjQ2MTctLjM4NzczIDEuMjI3NzYtLjUxNjk4IDEuODA5MzQtLjA2NDcuMDY0Ny0uMDY0Ny4xMjkxNC0uMDY0Ny4xMjkxNC0uMTkzODcuNjQ2MjEtLjM4NzcxIDEuMjkyMzktLjU4MTU1IDEuOTM4NTgtLjI1ODU4LjY0NjIxLS40NTIzNCAxLjIyNzc4LS43MTA4MSAxLjg3Mzk4LS4yNTg1Ny42NDYyLS40NTIzNiAxLjI5MjQtLjcxMDgzIDEuODczOTYtLjI1ODU5LjY0NjIyLS41MTY5NyAxLjIyNzgtLjc3NTQzIDEuODczOTdoLS4wNjQ4Yy0uMjU4Ni41ODE1Ny0uNTE2OTkgMS4yMjc3OS0uODQwMSAxLjgwOTM4LS4wNjQ3LjE5MzgzLS4xMjkxMi4zMjMwOS0uMTkzODQuNDUyMy0uMDY0Ny4wNjQ4LS4wNjQ3LjEyOTE0LS4xMjkxNC4xOTM4OC00LjIwMDI2IDguNDY1MTQtMTAuNDAzNzcgMTUuODk2MzktMTguMTU4MDkgMjEuNzEyMTctLjUxNjk1LjMyMzA5LTEuMDMzOTIuNzEwODItMS41NTA4NiAxLjA5ODUyLS4xMjkxNS4xMjkxNS0uMzIzMTIuMTkzODgtLjQ1MjM1LjMyMzA5LS40NTIzNS4zMjMxLS45MDQ2OC42NDYxOC0xLjQyMTYxLjk2OTMxbC4xOTM4NS4zODc3MmguMDY0N2MuOTA0NjYtLjEyOTEzIDEuODA5MzQtLjI1ODU4IDIuNzE0MDItLjM4NzcyaC4wNjQ3YzEuNjgwMTItLjI1ODU4IDMuMzYwMjMtLjU4MTU4IDUuMDQwMzUtLjkwNDY3LjQ1MjMxLS4wNjQ4Ljk2OTMtLjE5Mzg1IDEuNDIxNjEtLjMyMzEyLjMyMzA5LS4wNjQ4LjU4MTU4LS4xMjkxMy45MDQ2Ny0uMTkzODYuNDUyMzUtLjA2NDguOTA0NjgtLjE5Mzg2IDEuMzU3MDQtLjI1ODU3LjM4NzctLjEyOTE0Ljc3NTQzLS4xOTM4OCAxLjE2MzE0LS4zMjMxIDYuNDYxOTUtMS41NTA4OSAxMi43MzAwNy0zLjY4MzM1IDE4LjczOTY1LTYuMjAzNDktMTAuMjc0NDggMTQuMDIyNDMtMjQuMDM4NDcgMjUuMzMwODctNDAuMTI4NzQgMzIuNzYyMTIgNy40MzEyNy0uNTE2OTYgMTQuODYyNTEtMS43NDQ3MiAyMi4wMzUyOC0zLjgxMjU0IDI2LjA0MTctNy42ODk3NyA0Ny45NDc3Mi0yNS4yMDE2NSA2MS4wNjU0OS00OC43ODc4LTIuNjQ5NCAxNC45MjcxNC04LjU5NDQgMjkuMTQzNDQtMTcuMzgyNjUgNDEuNTUwNDEgNi4yNjgwOS00LjEzNTY5IDEyLjAxOTIzLTguOTE3NTMgMTcuMjUzNDItMTQuMzQ1NTcgMTQuNDc0NzgtMTUuMTIwOTcgMjMuOTczODgtMzQuMzEyOTYgMjcuMjA0ODMtNTQuOTI2NjUgMi4xOTcwOCAxMC4yMDk5IDIuODQzMjggMjAuNzQyOTMgMS44NzM5OCAzMS4xNDY2NiA0Ni42NTUzNC02NS4wNzE5MiAzLjg3NzE3LTEzMi41MzQ3Ni0xNC4wMjI0NC0xNTAuMzA1MTQxLS4wNjQ4LS4xMjkxMzMtLjEyOTE0LS4xOTM4NTgtLjEyOTE0LS4zMjMwODktLjA2NDguMDY0Ny0uMDY0OC4wNjQ3LS4wNjQ4LjEyOTE0NCAwLS4wNjQ3MSAwLS4wNjQ3MS0uMDY0Ny0uMTI5MTQ0IDAgLjc3NTQ0Mi0uMDY0NyAxLjU1MDg0OC0uMTI5MTQgMi4zMjYyOTEtLjE5Mzg3IDEuNDg2MjUtLjM4NzcxIDIuOTA3ODc5LS42NDYyMSA0LjMyOTUyOS0uMzIzMDggMS40MjE2Mi0uNzEwODEgMi44NDMyMi0xLjA5ODU0IDQuMjY0ODgtLjQ1MjMyIDEuMzU2OTktLjk2OTI1IDIuNzc4NjItMS41NTA4NSA0LjEzNTY1LS41ODE1OCAxLjI5MjM3LTEuMjI3NzggMi42NDkzOS0xLjkzODU5IDMuOTQxOC0uNzEwODIgMS4yMjc3OC0xLjQ4NjI1IDIuNTIwMTYtMi4zMjYyOSAzLjY4MzMtLjg0MDA2IDEuMjI3OC0xLjc0NDc0IDIuMzkwOTMtMi42NDk0MyAzLjQ4OTQ0LS45NjkzMSAxLjE2MzE4LTIuMDAzMTkgMi4xOTcxLTMuMDM3MTIgMy4yMzEwMS0uNjQ2MTguNTgxNTgtMS4yMjc3NSAxLjA5ODUzLTEuODczOTggMS42MTU0Ni0uNTE2OTQuNDUyMzYtLjk2OTI3Ljg0MDA5LTEuNDg2MjUgMS4yOTIzOS0xLjE2MzE0LjkwNDY4LTIuMzI2MjkgMS43NDQ3NC0zLjYxODY3IDIuNTIwMTktMS4yMjc3OC43NzU0Mi0yLjUyMDE0IDEuNTUwODYtMy44MTI1NCAyLjE5NzA3LTEuMzU3MDIuNjQ2MTktMi43MTQwNCAxLjIyNzc2LTQuMDcxMDQgMS44MDkzNS0xLjM1NzAyLjUxNjkzLTIuNzc4NjQuOTY5MjgtNC4yMDAzMSAxLjM1NzAxLTEuNDIxNjEuMzg3Ny0yLjkwNzg1LjcxMDgxLTQuMzI5NDkuOTY5MjgtMS40ODYyMy4yNTg1OC0yLjk3MjQ5LjM4NzcxLTQuMzk0MTIuNTE2OTctMS4wMzM5Mi4wNjQ3LTIuMDY3ODIuMTI5MTUtMy4xMDE3NS4xMjkxNS0xLjQ4NjI2IDAtMi45NzI0OC0uMTI5MTUtNC4zOTQxMi0uMjU4NTgtMS40ODYyNC0uMTI5MTQtMi45NzI1MS0uMzIzMTQtNC4zOTQxMy0uNjQ2MjMtMS40ODYyNS0uMjU4NTgtMi45MDc5LS42NDYyMS00LjMyOTUzLTEuMDk4NTFoLS4wNjQ3YzEuNDIxNjMtLjEyOTE0IDIuODQzMjctLjI1ODYgNC4yNjQ5Mi0uNTE2OTcgMS40ODYyMi0uMjU4NTggMi45MDc4NS0uNTgxNTYgNC4zMjk1LS45NjkzMSAxLjQyMTYyLS4zODc3MSAyLjg0MzI1LS44NDAwNiA0LjIwMDI2LTEuMzU3IDEuNDIxNjItLjUxNjk2IDIuNzc4NjUtMS4xNjMxMyA0LjA3MTA1LTEuODA5MzYgMS4zNTctLjY0NjIxIDIuNTg0NzgtMS4zNTcgMy44NzcxNi0yLjEzMjQ0IDEuMjI3NzYtLjg0MDA1IDIuNDU1NTQtMS42ODAwOSAzLjYxODY5LTIuNTg0NzkgMS4xNjMxNi0uOTA0NjYgMi4yNjE2Ny0xLjg3Mzk0IDMuMjk1NjItMi45MDc4NiAxLjA5ODUzLS45NjkzMiAyLjA2NzgxLTIuMDY3ODQgMy4wMzcxMS0zLjE2NjM4Ljk2OTI3LTEuMTYzMTIgMS44NzM5Ni0yLjMyNjI4IDIuNzE0MDItMy40ODk0NC4xMjkxNS0uMTkzODcuMjU4NTktLjQ1MjMyLjM4Nzc0LS42NDYxOS42NDYxNy0xLjAzMzkyIDEuMjkyMzUtMi4wNjc4MyAxLjg3MzkyLTMuMTAxNzYuNzEwODMtMS4yOTIzOSAxLjM1NzA0LTIuNTg0NzkgMS45Mzg2LTMuOTQxNzcuNTgxNTktMS4zNTcwMiAxLjA5ODU1LTIuNzE0MDUgMS41NTA4OS00LjEzNTY2LjQ1MjMyLTEuMzU3MDMuNzc1NDItMi43Nzg2NCAxLjA5ODUzLTQuMjAwMjU4LjI1ODU5LTEuNDg2MjU4LjUxNjk0LTIuOTA3OTEuNjQ2MTktNC4zMjk1MjguMTI5MTQtMS40ODYyNDQuMjU4NTctMi45NzI1MDMuMjU4NTctNC4zOTQxMTkgMC0xLjAzMzkyOC0uMDY0OC0yLjA2NzgzLS4xMjkxMi0zLjEwMTczMy0uMTI5MTUtMS40ODYyNDYtLjMyMzExLTIuOTA3OS0uNTE2OTYtNC4zMjk1MTktLjI1ODU5LTEuNDg2MjU3LS41ODE1Ny0yLjkwNzg3My0uOTY5MzEtNC4zMjk1MjktLjQ1MjMxLTEuMzU2OTkxLS45MDQ2Ny0yLjc3ODYzNC0xLjQyMTYxLTQuMTM1NjIzLS41MTY5OS0xLjM1NzAyOC0xLjE2MzE1LTIuNzE0MDQyLTEuODA5MzgtNC4wMDY0NDMtLjcxMDgxLTEuMjkyMzg4LTEuNDIxNjEtMi41ODQ3NzYtMi4xOTcwNC0zLjgxMjUzNi0uODQwMDUtMS4yMjc3Ni0xLjY4MDEzLTIuMzkwOTE3LTIuNTg0OC0zLjU1NDA4Ny0uOTY5MjctMS4wOTg1MzEtMS45Mzg1Ny0yLjE5NzA2LTIuOTcyNTEtMy4yOTU1OS0uNTE2OTQtLjUxNjk0Ny0xLjA5ODUzLTEuMDk4NTMyLTEuNjgwMS0xLjYxNTQ3Ni0yLjkwNzg3LTIuMjYxNy01Ljk0NS00LjM5NDE1OS04Ljk4MjEtNi4zMzI3MzItLjQ1MjMzLS4yNTg1NzQtLjg0MDA1LS40NTIzNDItMS4yOTI0LS42NDYyMTItMi4xMzI0Ni0xLjM1Njk5Mi00LjEzNTY2LTIuMDY3ODMxLTYuMTM4ODUtMi43MTQwMDd6Ii8+PC9zdmc+;" parent="1" vertex="1">
          <mxGeometry x="410" y="265" width="90.38" height="90" as="geometry" />
        </mxCell>
        <mxCell id="OLo9JDgMP8blUHthKr4o-27" value="" style="shape=image;verticalLabelPosition=bottom;labelBackgroundColor=default;verticalAlign=top;aspect=fixed;imageAspect=0;editableCssRules=.*;image=data:image/svg+xml,PHN2ZyB4bWxuczp4bGluaz0iaHR0cDovL3d3dy53My5vcmcvMTk5OS94bGluayIgeG1sbnM9Imh0dHA6Ly93d3cudzMub3JnLzIwMDAvc3ZnIiB2ZXJzaW9uPSIxLjEiIHZpZXdCb3g9IjAgMCA3MyA3MyIgaGVpZ2h0PSI4MDAiIHdpZHRoPSI4MDAiPiYjeGE7ICAgICYjeGE7ICAgIDx0aXRsZT5mcmFtZXdvcmtzLWFuZC1saWJyYXJpZXMvdnVlPC90aXRsZT4mI3hhOyAgICA8ZGVzYz5DcmVhdGVkIHdpdGggU2tldGNoLjwvZGVzYz4mI3hhOyAgICA8ZGVmcz4mI3hhOyYjeGE7PC9kZWZzPiYjeGE7ICAgIDxnIGZpbGwtcnVsZT0iZXZlbm9kZCIgZmlsbD0ibm9uZSIgc3Ryb2tlLXdpZHRoPSIxIiBzdHJva2U9Im5vbmUiIGlkPSJmcmFtZXdvcmtzLWFuZC1saWJyYXJpZXMvdnVlIj4mI3hhOyAgICAgICAgPGcgc3Ryb2tlLXdpZHRoPSIyIiBzdHJva2U9IiMzNDQ5NUUiIGZpbGwtcnVsZT0ibm9uemVybyIgZmlsbD0iI0ZGRkZGRiIgdHJhbnNmb3JtPSJ0cmFuc2xhdGUoMi4wMDAwMDAsIDIuMDAwMDAwKSIgaWQ9ImNvbnRhaW5lciI+JiN4YTsgICAgICAgICAgICA8cmVjdCByeD0iMTQiIGhlaWdodD0iNzEiIHdpZHRoPSI3MSIgeT0iLTEiIHg9Ii0xIiBpZD0ibWFzayI+JiN4YTsmI3hhOzwvcmVjdD4mI3hhOyAgICAgICAgPC9nPiYjeGE7ICAgICAgICA8ZyBmaWxsLXJ1bGU9Im5vbnplcm8iIHRyYW5zZm9ybT0idHJhbnNsYXRlKDExLjAwMDAwMCwgMTQuMDAwMDAwKSIgaWQ9IlZ1ZS5qc19Mb2dvXzIiPiYjeGE7ICAgICAgICAgICAgPGcgdHJhbnNmb3JtPSJ0cmFuc2xhdGUoMjYuMDM2MDY2LCAyMi42MzM3MzYpIHNjYWxlKC0xLCAxKSByb3RhdGUoLTE4MC4wMDAwMDApIHRyYW5zbGF0ZSgtMjYuMDM2MDY2LCAtMjIuNjMzNzM2KSB0cmFuc2xhdGUoMC4xMzQ4MjcsIDAuMTMzNjY5KSIgaWQ9Ikdyb3VwIj4mI3hhOyAgICAgICAgICAgICAgICA8ZyBpZD0iU2hhcGUiIGZpbGw9IiM0MUI4ODMiIHRyYW5zZm9ybT0idHJhbnNsYXRlKDAuMDE1Njk4LCAwLjAwMjYxNikiPiYjeGE7ICAgICAgICAgICAgICAgICAgICA8cG9seWdvbiBwb2ludHM9IjMxLjY1NzA3MDIgNDQuNzM4NTA0MiAyNS43MjYyMDk3IDM0LjQ2NTkxNTcgMTkuNzk1MzQ5MSA0NC43Mzg1MDQyIDAuMDQ0NzM4NTA0MiA0NC43Mzg1MDQyIDI1LjcyNjIwOTcgMC4yNTYzOTYxMDYgNTEuNDA3NjgwOCA0NC43Mzg1MDQyIj4mI3hhOyYjeGE7PC9wb2x5Z29uPiYjeGE7ICAgICAgICAgICAgICAgIDwvZz4mI3hhOyAgICAgICAgICAgICAgICA8ZyBpZD0iU2hhcGUiIGZpbGw9IiMzNDQ5NUUiIHRyYW5zZm9ybT0idHJhbnNsYXRlKDEwLjIxOTIxNiwgMTcuNzkzMzY2KSI+JiN4YTsgICAgICAgICAgICAgICAgICAgIDxwb2x5Z29uIHBvaW50cz0iMjEuNDUzNTUxNyAyNi45NDc3NTQgMTUuNTIyNjkxMiAxNi42NzUxNjU1IDkuNTkxODMwNjQgMjYuOTQ3NzU0IDAuMTEzODA4NDc1IDI2Ljk0Nzc1NCAxNS41MjI2OTEyIDAuMjU5MDEyMzkyIDMwLjkzMTU3MzkgMjYuOTQ3NzU0Ij4mI3hhOyYjeGE7PC9wb2x5Z29uPiYjeGE7ICAgICAgICAgICAgICAgIDwvZz4mI3hhOyAgICAgICAgICAgIDwvZz4mI3hhOyAgICAgICAgPC9nPiYjeGE7ICAgIDwvZz4mI3hhOzwvc3ZnPg==;" parent="1" vertex="1">
          <mxGeometry x="142.5" y="140" width="80" height="80" as="geometry" />
        </mxCell>
        <mxCell id="OLo9JDgMP8blUHthKr4o-34" style="edgeStyle=orthogonalEdgeStyle;rounded=0;orthogonalLoop=1;jettySize=auto;html=1;startArrow=classic;startFill=1;" parent="1" source="OLo9JDgMP8blUHthKr4o-30" target="OLo9JDgMP8blUHthKr4o-33" edge="1">
          <mxGeometry relative="1" as="geometry" />
        </mxCell>
        <mxCell id="OLo9JDgMP8blUHthKr4o-30" value="" style="image;sketch=0;aspect=fixed;html=1;points=[];align=center;fontSize=12;image=img/lib/mscae/Docker.svg;" parent="1" vertex="1">
          <mxGeometry x="360.19" y="500" width="190" height="155.8" as="geometry" />
        </mxCell>
        <mxCell id="OLo9JDgMP8blUHthKr4o-33" value="" style="image;sketch=0;aspect=fixed;html=1;points=[];align=center;fontSize=12;image=img/lib/mscae/VM_Linux.svg;" parent="1" vertex="1">
          <mxGeometry x="110" y="511.2" width="145" height="133.4" as="geometry" />
        </mxCell>
        <mxCell id="OLo9JDgMP8blUHthKr4o-40" value="" style="html=1;verticalLabelPosition=bottom;align=center;labelBackgroundColor=#ffffff;verticalAlign=top;strokeWidth=2;strokeColor=#0080F0;shadow=0;dashed=0;shape=mxgraph.ios7.icons.mail;" parent="1" vertex="1">
          <mxGeometry x="660" y="120" width="120" height="70" as="geometry" />
        </mxCell>
        <mxCell id="OLo9JDgMP8blUHthKr4o-45" style="edgeStyle=orthogonalEdgeStyle;rounded=0;orthogonalLoop=1;jettySize=auto;html=1;entryX=1.008;entryY=0.37;entryDx=0;entryDy=0;entryPerimeter=0;startArrow=classicThin;startFill=1;" parent="1" source="OLo9JDgMP8blUHthKr4o-20" target="OLo9JDgMP8blUHthKr4o-25" edge="1">
          <mxGeometry relative="1" as="geometry">
            <Array as="points">
              <mxPoint x="610" y="298" />
            </Array>
          </mxGeometry>
        </mxCell>
        <mxCell id="OLo9JDgMP8blUHthKr4o-48" style="edgeStyle=orthogonalEdgeStyle;rounded=0;orthogonalLoop=1;jettySize=auto;html=1;startArrow=classic;startFill=1;" parent="1" source="OLo9JDgMP8blUHthKr4o-25" target="OLo9JDgMP8blUHthKr4o-40" edge="1">
          <mxGeometry relative="1" as="geometry">
            <Array as="points">
              <mxPoint x="460" y="160" />
            </Array>
          </mxGeometry>
        </mxCell>
        <mxCell id="OLo9JDgMP8blUHthKr4o-56" value="" style="rounded=0;whiteSpace=wrap;html=1;labelBackgroundColor=light-dark(#000000,#FFFFFF);fillColor=light-dark(#FFFFFF,#FFFFFF);" parent="1" vertex="1">
          <mxGeometry x="90" y="110" width="260" height="30" as="geometry" />
        </mxCell>
        <mxCell id="OLo9JDgMP8blUHthKr4o-55" value="" style="shape=image;verticalLabelPosition=bottom;labelBackgroundColor=#FFFFFF;verticalAlign=top;aspect=fixed;imageAspect=0;editableCssRules=.*;image=data:image/svg+xml,PHN2ZyB4bWxucz0iaHR0cDovL3d3dy53My5vcmcvMjAwMC9zdmciIGZpbGw9Im5vbmUiIHZpZXdCb3g9IjMyMCAxNjAgMzA1NS4wODk4NDM3NSA3MDQiIGhlaWdodD0iNzA0IiB3aWR0aD0iMzA1NS4wODk4NDM3NSI+PHBhdGggZmlsbD0iIzEwMEYxMyIgZD0iTTMyMy4yNyA0NjEuMjQ1YTM1Ny45MTUgMzU3LjkxNSAwIDAgMC0zLjI3IDM1LjQ0OGg1MzQuNzM3Yy0xLjg2OC0zLjY0OC00LjM3Ni02LjkzNy02LjkwNi0xMC4xNTYtOTEuNDE3LTExOC4xMDYtMTQwLjU5My0xMDcuODY2LTIxMC45MzgtMTEwLjg2Ni0yMy40NTMtLjk2NS0zOS4zNTktMS4zNTItMTMyLjcxMy0xLjM1Mi00OS45NjUgMC0xMDQuMjg2LjEyNy0xNTcuMTgyLjI2Ny02Ljg0NyAxOC40ODMtMTMuNDUxIDM2LjM5OS0xNi42NjcgNTAuOTcyaDI3NC4wMTh2MzUuNjg3SDMyMy4yN1ptNTM1LjY4MSA3MS4xNzFIMzIwLjI3NWMuNTY0IDkuNTIyIDEuNDUyIDE4LjkxOCAyLjczNCAyOC4xODdoNDk3LjMzYzIyLjE3MSAwIDM0LjU4MS0xMi41NzkgMzguNjEyLTI4LjE4N1pNMzUwLjk0OSA2NTcuOTZTNDMzLjM5NyA4NjAuNDAyIDY3MS42MjkgODY0YzE0Mi4zODkgMCAyNjQuNzM2LTg0LjU2NyAzMjAuMzEtMjA2LjA0aC02NDAuOTlaIi8+PHBhdGggZmlsbD0iIzEwMEYxMyIgZD0iTTY3MS42MjQgMTYwYy0xMzEuNjU2IDAtMjQ2LjIyMyA3Mi4yOTgtMzA2LjcyMyAxNzkuMTcgNDcuMjc5LS4wOTggMTM5LjM1OS0uMTU1IDEzOS4zNTktLjE1NWguMDIxdi0uMDM1YzEwOC44MzcgMCAxMTIuODgyLjQ4NiAxMzQuMTQ0IDEuMzc0bDEzLjE2NC40ODZjNDUuODU3IDEuNTI4IDEwMi4yMiA2LjQ1MSAxNDYuNTY4IDQwLjAwNSAyNC4wNzQgMTguMTk5IDU4LjgzMSA1OC4zNjYgNzkuNTUgODYuOTgyIDE5LjE1NCAyNi40NjkgMjQuNjY1IDU2Ljg5NSAxMS42NDIgODYuMDQ3LTExLjk4OCAyNi43OTItMzcuNzggNDIuNzczLTY5LjAxNCA0Mi43NzNIMzMxLjQ3NHMyLjkxIDEyLjMzNiA3LjI3NCAyNS45NTNoNjY3LjMxMkEzNTEuMDggMzUxLjA4IDAgMCAwIDEwMjQgNTEyLjE1QzEwMjQuMDEgMzE3LjY4MiA4NjYuMjQxIDE2MCA2NzEuNjI0IDE2MFptNzA2LjUwNiA0OTloODMuMDRWNTE5Ljc4MWg2MC41OUwxNTk2LjE3IDY1OWg5MS42NmwtODMuNDItMTUyLjY0MmM0NC42OC0xOS4xNzYgNjkuNDItNTguMTA0IDY5LjQyLTExMS43OTcgMC03OC4wNDctNTEuNTgtMTI4LjI4OC0xNDAuNzUtMTI4LjI4OGgtMTU0Ljk1VjY1OVptODMuMDQtMjA1Ljk1MlYzMzQuMTU2aDU1Ljk5YzQ3Ljk0IDAgNzEuMTQgMjEuMjg2IDcxLjE0IDYwLjQwNSAwIDM4LjkyOC0yMy4yIDU4LjQ4Ny03MC43NiA1OC40ODdoLTU2LjM3Wm0zNTMuOCAyMTEuNTEzYzQzLjUzIDAgNzEuNzEtMTguOTg0IDg2LjEtNDYuNDA2aDIuM1Y2NTloNzcuNDdWNDYwLjMzNWMwLTcwLjE4NC01OS40NS05OS43MTYtMTI1LjAzLTk5LjcxNi03MC41NyAwLTExNi45NyAzMy43NS0xMjguMjkgODcuNDQzbDc1LjU2IDYuMTM3YzUuNTYtMTkuNTYgMjMuMDEtMzMuOTQyIDUyLjM1LTMzLjk0MiAyNy44IDAgNDMuNzIgMTMuOTk5IDQzLjcyIDM4LjE2MXYxLjE1YzAgMTguOTg1LTIwLjE0IDIxLjQ3Ny03MS4zNCAyNi40NjMtNTguMjkgNS4zNy0xMTAuNjQgMjQuOTI5LTExMC42NCA5MC43MDMgMCA1OC4yOTYgNDEuNjEgODcuODI3IDk3LjggODcuODI3Wm0yMy4zOS01Ni4zNzhjLTI1LjEyIDAtNDMuMTUtMTEuNjk3LTQzLjE1LTM0LjEzMyAwLTIzLjAxMiAxOC45OS0zNC4zMjYgNDcuNzUtMzguMzUzIDE3Ljg0LTIuNDkyIDQ2Ljk4LTYuNzExIDU2Ljc2LTEzLjIzMXYzMS4yNTdjMCAzMC44NzQtMjUuNSA1NC40Ni02MS4zNiA1NC40NlpNMjA0NC4yMiA2NTloODEuNjlWMzY0LjQ1NWgtODEuNjlWNjU5Wm00MS4wMy0zMzIuNTE0YzI0LjM2IDAgNDQuMy0xOC42MDEgNDQuMy00MS40MjEgMC0yMi42MjctMTkuOTQtNDEuMjI4LTQ0LjMtNDEuMjI4LTI0LjE2IDAtNDQuMSAxOC42MDEtNDQuMSA0MS4yMjggMCAyMi44MiAxOS45NCA0MS40MjEgNDQuMSA0MS40MjFabTE4Ny43OS02MC4yMTNoLTgxLjY5VjY1OWg4MS42OVYyNjYuMjczWk0yMzk2LjU4IDY1OWg4Ni4yOWw1MC42My0xODUuMjQxaDMuNjRMMjU4Ny43NiA2NTloODYuNDlsNzkuOTYtMjk0LjU0NWgtODIuNDVsLTQ0Ljg4IDE5Ni43NDdoLTIuNDlsLTQ4LjMyLTE5Ni43NDdoLTgxLjEybC00Ny41NiAxOTcuODk3aC0yLjY4bC00NS42NC0xOTcuODk3aC04Mi42NUwyMzk2LjU4IDY1OVptNDg1LjIgNS41NjFjNDMuNTMgMCA3MS43Mi0xOC45ODQgODYuMS00Ni40MDZoMi4zVjY1OWg3Ny40OFY0NjAuMzM1YzAtNzAuMTg0LTU5LjQ1LTk5LjcxNi0xMjUuMDMtOTkuNzE2LTcwLjU3IDAtMTE2Ljk4IDMzLjc1LTEyOC4yOSA4Ny40NDNsNzUuNTUgNi4xMzdjNS41Ni0xOS41NiAyMy4wMS0zMy45NDIgNTIuMzUtMzMuOTQyIDI3LjgxIDAgNDMuNzMgMTMuOTk5IDQzLjczIDM4LjE2MXYxLjE1YzAgMTguOTg1LTIwLjE0IDIxLjQ3Ny03MS4zNCAyNi40NjMtNTguMyA1LjM3LTExMC42NSAyNC45MjktMTEwLjY1IDkwLjcwMyAwIDU4LjI5NiA0MS42MiA4Ny44MjcgOTcuOCA4Ny44MjdabTIzLjQtNTYuMzc4Yy0yNS4xMiAwLTQzLjE1LTExLjY5Ny00My4xNS0zNC4xMzMgMC0yMy4wMTIgMTguOTktMzQuMzI2IDQ3Ljc1LTM4LjM1MyAxNy44My0yLjQ5MiA0Ni45OC02LjcxMSA1Ni43Ni0xMy4yMzF2MzEuMjU3YzAgMzAuODc0LTI1LjUgNTQuNDYtNjEuMzYgNTQuNDZabTI0NS43NCAxNjEuMjcyYzYwLjc5IDAgOTMtMzEuMDY2IDEwOS42OS03OC42MjNsMTE0LjQ4LTMyNS45OTQtODYuNDktLjM4My02MS41NSAyMTYuMzA2aC0zLjA3TDMxNjMgMzY0LjQ1NWgtODUuOTFsMTA1LjY2IDMwMi45ODMtNC43OSAxMi40NjRjLTEwLjc0IDI3LjYxNC0zMS4yNiAyOC45NTYtNjAuMDIgMjAuMTM1bC0xOC40MSA2MC45OGMxMS42OSA0Ljk4NiAzMC42OCA4LjQzOCA1MS4zOSA4LjQzOFoiLz48L3N2Zz4=;fontColor=light-dark(#FFFFFF, #000000);" parent="1" vertex="1">
          <mxGeometry x="142.5" y="110" width="129.97" height="30" as="geometry" />
        </mxCell>
      </root>
    </mxGraphModel>
  </diagram>
</mxfile>
